#N canvas 233 207 462 337 12;
#X obj 267 97 r from-arduino;
#X obj 267 74 s to-arduino;
#X obj 158 72 r osc-in;
#X obj 157 104 s osc-out;
#X obj 39 207 dac~;
#X obj 39 141 noise~;
#X msg 38 63 \; pd dsp 1;
#X obj 38 32 loadbang;
#X obj 39 165 *~ 0.0001;
#N canvas 63 100 993 257 OSC-IO 0;
#X obj 28 74 netreceive -u -b 6660;
#X obj 28 98 oscparse;
#X obj 529 101 oscparse;
#X obj 529 77 netreceive -u -b 7770;
#X obj 761 159 netsend -u -b;
#X msg 781 133 connect localhost 7771;
#X obj 781 107 loadbang;
#X text 525 42 from arduino via python;
#X text 776 45 to arduino via python;
#X obj 529 126 list trim;
#X obj 28 122 list trim;
#X obj 28 146 s osc-in;
#X obj 529 153 s from-arduino;
#X obj 761 81 r to-arduino;
#X obj 238 152 netsend -u -b;
#X obj 258 100 loadbang;
#X msg 258 126 connect 255.255.255.255 5550;
#X obj 238 74 r osc-out;
#X text 30 41 command;
#X text 237 40 report;
#X text 52 14 ----------- OSC (external) -------------;
#X text 522 13 ----------- OSC (local) -------------;
#X connect 0 0 1 0;
#X connect 1 0 10 0;
#X connect 2 0 9 0;
#X connect 3 0 2 0;
#X connect 5 0 4 0;
#X connect 6 0 5 0;
#X connect 9 0 12 0;
#X connect 10 0 11 0;
#X connect 13 0 4 0;
#X connect 15 0 16 0;
#X connect 16 0 14 0;
#X connect 17 0 14 0;
#X restore 161 27 pd OSC-IO;
#X connect 5 0 8 0;
#X connect 7 0 6 0;
#X connect 8 0 4 0;
