#N canvas 728 200 551 337 12;
#X declare -lib slip;
#X obj 159 152 r osc-in;
#X obj 159 193 s osc-out;
#X obj 39 207 dac~;
#X obj 39 141 noise~;
#X msg 38 63 \; pd dsp 1;
#X obj 38 32 loadbang;
#X obj 39 165 *~ 0.0001;
#N canvas 63 100 496 257 OSC-IO 0;
#X obj 28 74 netreceive -u -b 6660;
#X obj 28 98 oscparse;
#X obj 28 122 list trim;
#X obj 238 152 netsend -u -b;
#X obj 258 100 loadbang;
#X msg 258 126 connect 255.255.255.255 5550;
#X text 30 41 command;
#X text 237 40 report;
#X text 52 14 ----------- OSC (external) -------------;
#X obj 28 154 outlet;
#X obj 238 75 inlet;
#X connect 0 0 1 0;
#X connect 1 0 2 0;
#X connect 2 0 9 0;
#X connect 4 0 5 0;
#X connect 5 0 3 0;
#X connect 10 0 3 0;
#X restore 158 60 pd OSC-IO;
#X obj 158 86 s osc-in;
#X obj 158 34 r osc-out;
#N canvas 447 326 450 446 ARD-IO 0;
#X obj 75 26 loadbang;
#X msg 75 53 1;
#X obj 75 201 oscparse;
#X obj 75 228 route list;
#X msg 139 80 close;
#X msg 75 80 open \$1;
#X obj 76 260 list trim;
#X obj 75 147 comport 1 9600;
#X obj 200 70 oscformat;
#X obj 200 30 inlet;
#X obj 76 290 outlet;
#X obj 280 154 declare -lib slip;
#X obj 200 100 slipenc;
#X obj 75 174 slipdec 65536;
#X connect 0 0 1 0;
#X connect 1 0 5 0;
#X connect 2 0 3 0;
#X connect 3 0 6 0;
#X connect 4 0 7 0;
#X connect 5 0 7 0;
#X connect 6 0 10 0;
#X connect 7 0 13 0;
#X connect 8 0 12 0;
#X connect 9 0 8 0;
#X connect 12 0 7 0;
#X connect 13 0 2 0;
#X restore 248 61 pd ARD-IO;
#X obj 248 35 r ard-out;
#X obj 248 87 s ard-in;
#X obj 244 193 s ard-out;
#X obj 244 152 r ard-in;
#X connect 3 0 6 0;
#X connect 5 0 4 0;
#X connect 6 0 2 0;
#X connect 7 0 8 0;
#X connect 9 0 7 0;
#X connect 10 0 12 0;
#X connect 11 0 10 0;
