#N canvas 414 555 423 337 12;
#X obj 159 232 r osc-in;
#X obj 159 193 s osc-out;
#X obj 39 207 dac~;
#X obj 39 141 noise~;
#X msg 38 63 \; pd dsp 1;
#X obj 38 32 loadbang;
#X obj 39 165 *~ 0.0001;
#N canvas 63 100 496 257 OSC-IO 0;
#X obj 28 74 netreceive -u -b 6660;
#X obj 28 98 oscparse;
#X obj 28 122 list trim;
#X obj 238 152 netsend -u -b;
#X obj 258 100 loadbang;
#X msg 258 126 connect 255.255.255.255 5550;
#X text 30 41 command;
#X text 237 40 report;
#X text 52 14 ----------- OSC (external) -------------;
#X obj 28 154 outlet;
#X obj 238 75 inlet;
#X connect 0 0 1 0;
#X connect 1 0 2 0;
#X connect 2 0 9 0;
#X connect 4 0 5 0;
#X connect 5 0 3 0;
#X connect 10 0 3 0;
#X restore 158 60 pd OSC-IO;
#X obj 158 86 s osc-in;
#X obj 158 34 r osc-out;
#N canvas 481 315 450 433 ARD-IO 1;
#X obj 30 334 oscparse;
#X msg 198 70 close;
#X obj 25 33 inlet;
#X obj 25 103 slip/slipenc;
#X obj 30 287 slip/slipdec 65536;
#X msg 211 94 open 1;
#X msg 310 99 baud 115200;
#X msg 308 76 baud 9600;
#X obj 171 132 s \$0-to-comport;
#X obj 31 222 r \$0-to-comport;
#X msg 171 45 devices;
#X obj 24 133 s \$0-to-comport;
#X obj 171 20 loadbang;
#X floatatom 89 33 5 0 0 0 - - - 0;
#X obj 201 208 netsend -u -b;
#X msg 207 172 connect localhost 5050;
#X msg 134 34 on;
#X obj 30 260 comport 0 9600;
#X obj 25 73 oscformat test;
#X obj 154 329 print SLIP;
#X obj 32 376 outlet;
#X connect 0 0 20 0;
#X connect 1 0 8 0;
#X connect 2 0 18 0;
#X connect 3 0 11 0;
#X connect 4 0 0 0;
#X connect 4 0 19 0;
#X connect 5 0 8 0;
#X connect 9 0 17 0;
#X connect 10 0 8 0;
#X connect 12 0 10 0;
#X connect 13 0 18 0;
#X connect 15 0 14 0;
#X connect 16 0 18 0;
#X connect 17 0 4 0;
#X connect 18 0 3 0;
#X connect 18 0 14 0;
#X restore 248 61 pd ARD-IO;
#X obj 248 35 r ard-out;
#X obj 248 87 s ard-in;
#X obj 244 193 s ard-out;
#X obj 244 232 r ard-in;
#X msg 342 161 1;
#X obj 244 256 print ARDUINO;
#X connect 3 0 6 0;
#X connect 5 0 4 0;
#X connect 6 0 2 0;
#X connect 7 0 8 0;
#X connect 9 0 7 0;
#X connect 10 0 12 0;
#X connect 11 0 10 0;
#X connect 14 0 16 0;
#X connect 15 0 13 0;
