#N canvas 826 510 538 382 12;
#X declare -path ./bop;
#X obj 198 302 dac~;
#X msg 19 245 \; pd dsp 1;
#X obj 19 214 loadbang;
#N canvas 64 425 913 437 OSC-IO 0;
#X obj 38 104 netreceive -u -b 6660;
#X obj 38 136 oscparse;
#X obj 38 160 list trim;
#X obj 652 322 netsend -u -b;
#X obj 672 270 loadbang;
#X msg 672 296 connect 255.255.255.255 5550;
#X obj 38 286 outlet;
#X obj 652 105 inlet;
#X obj 747 131 r ID;
#X obj 38 208 route all;
#X obj 652 160 list prepend 0;
#X obj 652 184 list trim;
#X obj 652 210 oscformat rpt;
#X obj 318 133 oscparse;
#X obj 318 157 list trim;
#X obj 350 277 s ID;
#X obj 318 109 netreceive -u -b 6661;
#X text 651 70 report (broadcast to 5550);
#X text 40 71 command (listen on 6660);
#X text 259 18 ----------- OSC INPUT/OUTPUT -------------;
#X text 320 76 admin (listen on 6661);
#X obj 318 335 s osc-out;
#X text 376 302 announce;
#X obj 318 181 route id pos, f 24;
#X obj 400 216 s POS;
#N canvas 63 100 195 328 route-by-id 0;
#X obj 37 37 inlet;
#X obj 38 259 outlet;
#X obj 70 195 r ID;
#X obj 37 67 list split 1, f 15;
#X obj 38 153 list append;
#X obj 38 224 route;
#X msg 37 99 symbol \$1;
#X obj 37 123 f;
#X connect 0 0 3 0;
#X connect 2 0 5 1;
#X connect 3 0 6 0;
#X connect 3 1 4 1;
#X connect 4 0 5 0;
#X connect 5 0 1 0;
#X connect 6 0 7 0;
#X connect 7 0 4 0;
#X restore 98 240 pd route-by-id;
#X obj 318 250 t b f;
#X msg 318 304 aloha 1;
#X obj 483 336 s osc-out;
#X obj 483 251 list prepend admin;
#X obj 483 275 list trim;
#X text 488 217 fwd all other messages, f 14;
#X connect 0 0 1 0;
#X connect 1 0 2 0;
#X connect 2 0 9 0;
#X connect 4 0 5 0;
#X connect 5 0 3 0;
#X connect 7 0 10 0;
#X connect 8 0 10 1;
#X connect 9 0 6 0;
#X connect 9 1 25 0;
#X connect 10 0 11 0;
#X connect 11 0 12 0;
#X connect 12 0 3 0;
#X connect 13 0 14 0;
#X connect 14 0 23 0;
#X connect 16 0 13 0;
#X connect 23 0 26 0;
#X connect 23 1 24 0;
#X connect 23 2 29 0;
#X connect 25 0 6 0;
#X connect 26 0 27 0;
#X connect 26 1 15 0;
#X connect 27 0 21 0;
#X connect 29 0 30 0;
#X connect 30 0 28 0;
#X restore 199 81 pd OSC-IO;
#X obj 199 110 s osc-in, f 9;
#X obj 199 52 r osc-out;
#N canvas 445 154 664 731 ARD-IO 0;
#X obj 30 425 oscparse;
#X obj 38 30 inlet;
#X obj 420 105 s \$0-to-comport;
#X obj 30 210 r \$0-to-comport;
#X msg 420 78 devices;
#X obj 420 53 loadbang;
#X obj 30 566 outlet;
#X obj 30 330 comport 0 115200;
#X obj 30 456 route list;
#X obj 426 371 oscformat -f fsi echo;
#X msg 428 340 0.5 hello 420;
#X text 163 46 recieve message like this;
#N canvas 63 100 518 365 oscformat 0;
#X obj 107 115 list split 1;
#X obj 38 51 list;
#X obj 38 262 oscformat;
#X obj 38 79 t b b l, f 13;
#X obj 107 167 list prepend set;
#X obj 38 227 list trim;
#X obj 82 195 list;
#X obj 38 178 list;
#X text 183 79 split first element to be osc address;
#X obj 36 19 inlet;
#X obj 38 299 outlet;
#X connect 0 0 4 0;
#X connect 0 1 7 1;
#X connect 1 0 3 0;
#X connect 2 0 10 0;
#X connect 3 0 7 0;
#X connect 3 1 6 0;
#X connect 3 2 0 0;
#X connect 4 0 6 1;
#X connect 5 0 2 0;
#X connect 6 0 5 0;
#X connect 7 0 5 0;
#X connect 9 0 1 0;
#X restore 38 90 pd oscformat;
#X obj 38 125 s \$0-to-slip;
#X obj 47 249 r \$0-to-slip;
#X obj 426 407 s \$0-to-slip;
#X msg 416 207 close;
#X msg 472 207 open 1;
#X obj 432 245 s \$0-to-comport;
#X msg 97 46 needle 0;
#X obj 47 284 bop.p/bop.p.slipencode;
#X obj 30 374 bop.p/bop.p.slipdecode;
#X obj 182 414 bng 15 250 50 0 empty empty error 17 7 0 10 #fcfcfc #000000 #000000;
#X text 415 31 print available devices;
#X text 410 180 manually dis/connect;
#X text 423 313 test message;
#N canvas 92 129 770 628 filter-spikes 0;
#X obj 122 78 route d;
#X obj 166 195 -;
#X obj 163 159 f;
#X obj 200 332 f;
#X obj 166 270 sel 1;
#X msg 200 492 d \$1;
#X obj 122 32 inlet;
#X obj 200 524 outlet;
#X obj 200 435 expr 1 - ($f1 - 9)/72;
#X obj 200 459 clip 0 1;
#X text 291 461 normalize and invert;
#X obj 166 221 < 7;
#X obj 125 112 t b f b f f, f 14;
#X obj 167 245 abs;
#X connect 0 0 12 0;
#X connect 1 0 11 0;
#X connect 2 0 1 0;
#X connect 3 0 8 0;
#X connect 4 0 3 0;
#X connect 5 0 7 0;
#X connect 6 0 0 0;
#X connect 8 0 9 0;
#X connect 9 0 5 0;
#X connect 11 0 13 0;
#X connect 12 1 2 1;
#X connect 12 2 2 0;
#X connect 12 3 1 1;
#X connect 12 4 3 1;
#X connect 13 0 4 0;
#X restore 30 492 pd filter-spikes;
#X connect 0 0 8 0;
#X connect 1 0 12 0;
#X connect 3 0 7 0;
#X connect 4 0 2 0;
#X connect 5 0 4 0;
#X connect 7 0 21 0;
#X connect 8 0 26 0;
#X connect 9 0 15 0;
#X connect 10 0 9 0;
#X connect 12 0 13 0;
#X connect 14 0 20 0;
#X connect 16 0 18 0;
#X connect 17 0 18 0;
#X connect 19 0 12 0;
#X connect 20 0 7 0;
#X connect 21 0 0 0;
#X connect 21 1 22 0;
#X connect 26 0 6 0;
#X restore 359 112 pd ARD-IO;
#X text 335 15 --- ARDUINO ---;
#X text 187 16 --- OSC ---;
#N canvas 606 294 482 182 variables 0;
#X obj 21 22 r RANDOM;
#X obj 21 51 print RANDOM;
#X obj 119 22 r ID;
#X obj 119 51 print ID;
#X obj 212 20 r POS;
#X obj 212 53 print POS;
#X connect 0 0 1 0;
#X connect 2 0 3 0;
#X connect 4 0 5 0;
#X restore 19 80 pd variables;
#X obj 19 288 declare -path ./bop, f 12;
#X obj 198 263 channel 0;
#X obj 198 224 r osc-in;
#X obj 258 302 s osc-out;
#X obj 359 53 r ard-out;
#X obj 359 141 s ard-in, f 9;
#X text 192 185 --- AUDIO / LIGHT / MOTION / SENSING ---;
#N canvas 63 100 450 300 ID 0;
#X obj 105 64 r ID;
#X msg 105 88 set \$1;
#X obj 105 137 s ID;
#X floatatom 105 112 5 0 0 1 ID - - 0;
#X connect 0 0 1 0;
#X connect 1 0 3 0;
#X connect 3 0 2 0;
#X coords 0 -1 1 1 70 40 2 100 100;
#X restore 19 20 pd ID;
#N canvas 701 206 175 250 heartbeat 0;
#X obj 21 13 loadbang;
#X msg 21 67 1;
#X obj 21 158 s osc-out;
#X obj 21 94 metro 10000;
#X msg 21 124 hb;
#X obj 21 41 delay 10000;
#X connect 0 0 5 0;
#X connect 1 0 3 0;
#X connect 3 0 4 0;
#X connect 4 0 2 0;
#X connect 5 0 1 0;
#X restore 19 105 pd heartbeat;
#N canvas 63 100 450 300 gate 0;
#X obj 127 104 inlet;
#X obj 235 105 inlet;
#X obj 177 182 list prepend;
#X obj 177 206 route 1;
#X obj 177 230 outlet;
#X connect 0 0 2 0;
#X connect 1 0 2 1;
#X connect 2 0 3 0;
#X connect 3 0 4 0;
#X restore 359 86 pd gate;
#X f 12;
#X obj 440 52 tgl 19 0 empty empty empty 0 -10 0 12 #fcfcfc #000000 #000000 0 1;
#X connect 2 0 1 0;
#X connect 3 0 4 0;
#X connect 5 0 3 0;
#X connect 6 0 15 0;
#X connect 11 0 0 0;
#X connect 11 1 13 0;
#X connect 12 0 11 0;
#X connect 14 0 19 0;
#X connect 19 0 6 0;
#X connect 20 0 19 1;
