#N canvas 12 425 578 425 12;
#X declare -path ./bop;
#X obj 36 355 dac~;
#X msg 28 147 \; pd dsp 1;
#X obj 28 116 loadbang;
#N canvas 64 425 858 437 OSC-IO 0;
#X obj 38 104 netreceive -u -b 6660;
#X obj 38 136 oscparse;
#X obj 38 160 list trim;
#X obj 558 322 netsend -u -b;
#X obj 578 270 loadbang;
#X msg 578 296 connect 255.255.255.255 5550;
#X obj 38 286 outlet;
#X obj 558 105 inlet;
#X obj 653 131 r ID;
#X obj 38 208 route all;
#X obj 558 160 list prepend 0;
#X obj 558 184 list trim;
#X obj 558 210 oscformat rpt;
#X obj 318 133 oscparse;
#X obj 318 157 list trim;
#X obj 350 277 s ID;
#X obj 318 109 netreceive -u -b 6661;
#X text 557 70 report (broadcast to 5550);
#X text 40 71 command (listen on 6660);
#X text 259 18 ----------- OSC INPUT/OUTPUT -------------;
#X text 320 76 admin (listen on 6661);
#X obj 318 335 s osc-out;
#X text 376 302 announce;
#X obj 318 181 route id pos;
#X obj 358 216 s POS;
#N canvas 63 100 195 328 route-by-id 0;
#X obj 37 37 inlet;
#X obj 38 259 outlet;
#X obj 70 195 r ID;
#X obj 37 67 list split 1, f 15;
#X obj 38 153 list append;
#X obj 38 224 route;
#X msg 37 99 symbol \$1;
#X obj 37 123 f;
#X connect 0 0 3 0;
#X connect 2 0 5 1;
#X connect 3 0 6 0;
#X connect 3 1 4 1;
#X connect 4 0 5 0;
#X connect 5 0 1 0;
#X connect 6 0 7 0;
#X connect 7 0 4 0;
#X restore 98 240 pd route-by-id;
#X obj 318 250 t b f;
#X msg 318 304 aloha 1;
#X connect 0 0 1 0;
#X connect 1 0 2 0;
#X connect 2 0 9 0;
#X connect 4 0 5 0;
#X connect 5 0 3 0;
#X connect 7 0 10 0;
#X connect 8 0 10 1;
#X connect 9 0 6 0;
#X connect 9 1 25 0;
#X connect 10 0 11 0;
#X connect 11 0 12 0;
#X connect 12 0 3 0;
#X connect 13 0 14 0;
#X connect 14 0 23 0;
#X connect 16 0 13 0;
#X connect 23 0 26 0;
#X connect 23 1 24 0;
#X connect 25 0 6 0;
#X connect 26 0 27 0;
#X connect 26 1 15 0;
#X connect 27 0 21 0;
#X restore 219 81 pd OSC-IO;
#X obj 219 106 s osc-in, f 9;
#X obj 219 55 r osc-out;
#N canvas 627 254 664 551 ARD-IO 0;
#X obj 30 425 oscparse;
#X obj 38 30 inlet;
#X obj 420 105 s \$0-to-comport;
#X obj 30 210 r \$0-to-comport;
#X msg 420 78 devices;
#X obj 420 53 loadbang;
#X obj 30 496 outlet;
#X obj 30 330 comport 0 115200;
#X obj 30 456 route list;
#X obj 426 371 oscformat -f fsi echo;
#X msg 428 340 0.5 hello 420;
#X text 163 46 recieve message like this;
#N canvas 63 100 518 365 oscformat 0;
#X obj 107 115 list split 1;
#X obj 38 51 list;
#X obj 38 262 oscformat;
#X obj 38 79 t b b l, f 13;
#X obj 107 167 list prepend set;
#X obj 38 227 list trim;
#X obj 82 195 list;
#X obj 38 178 list;
#X text 183 79 split first element to be osc address;
#X obj 36 19 inlet;
#X obj 38 299 outlet;
#X connect 0 0 4 0;
#X connect 0 1 7 1;
#X connect 1 0 3 0;
#X connect 2 0 10 0;
#X connect 3 0 7 0;
#X connect 3 1 6 0;
#X connect 3 2 0 0;
#X connect 4 0 6 1;
#X connect 5 0 2 0;
#X connect 6 0 5 0;
#X connect 7 0 5 0;
#X connect 9 0 1 0;
#X restore 38 90 pd oscformat;
#X obj 38 125 s \$0-to-slip;
#X obj 47 249 r \$0-to-slip;
#X obj 426 407 s \$0-to-slip;
#X msg 416 207 close;
#X msg 472 207 open 1;
#X obj 432 245 s \$0-to-comport;
#X msg 97 46 needle 0;
#X obj 47 284 bop.p/bop.p.slipencode;
#X obj 30 374 bop.p/bop.p.slipdecode;
#X obj 182 414 bng 15 250 50 0 empty empty error 17 7 0 10 #fcfcfc #000000 #000000;
#X text 415 31 print available devices;
#X text 410 180 manually dis/connect;
#X text 423 313 test message;
#X connect 0 0 8 0;
#X connect 1 0 12 0;
#X connect 3 0 7 0;
#X connect 4 0 2 0;
#X connect 5 0 4 0;
#X connect 7 0 21 0;
#X connect 8 0 6 0;
#X connect 9 0 15 0;
#X connect 10 0 9 0;
#X connect 12 0 13 0;
#X connect 14 0 20 0;
#X connect 16 0 18 0;
#X connect 17 0 18 0;
#X connect 19 0 12 0;
#X connect 20 0 7 0;
#X connect 21 0 0 0;
#X connect 21 1 22 0;
#X restore 349 82 pd ARD-IO;
#X obj 349 56 r to-arduino, f 27;
#X obj 349 108 s from-arduino, f 27;
#X text 346 14 --- ARDUINO ---;
#X text 211 15 --- OSC ---;
#X text 30 233 --- AUDIO ---;
#N canvas 242 558 482 182 variables 0;
#X obj 21 22 r RANDOM;
#X obj 21 51 print RANDOM;
#X obj 119 22 r ID;
#X obj 119 51 print ID;
#X obj 212 20 r POS;
#X obj 212 53 print POS;
#X connect 0 0 1 0;
#X connect 2 0 3 0;
#X connect 4 0 5 0;
#X restore 28 87 pd variables;
#X f 19;
#X obj 28 58 declare -path ./bop;
#X obj 36 312 channel 0;
#X obj 36 272 r osc-in;
#X obj 96 355 s osc-out;
#X text 29 15 --- INIT ---;
#N canvas 63 100 979 440 ARDUINO-LOGIC 0;
#X obj 280 56 r osc-in;
#X obj 77 297 route d;
#X obj 77 140 s to-arduino;
#X obj 77 269 r from-arduino;
#X msg 77 113 needle \$1;
#X floatatom 77 322 5 0 0 1 distance - - 0;
#X obj 778 151 s to-arduino;
#X msg 778 121 ledhue \$1;
#X msg 281 116 leds \$1 \$1 \$1 \$1 \$1 \$1 \$1 \$1 \$1 \$1;
#X msg 570 120 ledsat \$1;
#X obj 281 143 s to-arduino;
#X obj 570 143 s to-arduino;
#X obj 280 87 route leds;
#X obj 569 62 r osc-in;
#X obj 569 91 route ledsat;
#X obj 777 63 r osc-in;
#X obj 777 92 route ledhue;
#X obj 77 54 r osc-in;
#X obj 77 85 route needle;
#X text 482 24 LEDs;
#X text 74 238 sensor;
#X text 83 20 motor;
#X connect 0 0 12 0;
#X connect 1 0 5 0;
#X connect 3 0 1 0;
#X connect 4 0 2 0;
#X connect 7 0 6 0;
#X connect 8 0 10 0;
#X connect 9 0 11 0;
#X connect 12 0 8 0;
#X connect 13 0 14 0;
#X connect 14 0 9 0;
#X connect 15 0 16 0;
#X connect 16 0 7 0;
#X connect 17 0 18 0;
#X connect 18 0 4 0;
#X restore 426 82 pd ARDUINO-LOGIC;
#X connect 2 0 1 0;
#X connect 3 0 4 0;
#X connect 5 0 3 0;
#X connect 6 0 8 0;
#X connect 7 0 6 0;
#X connect 14 0 0 0;
#X connect 14 1 16 0;
#X connect 15 0 14 0;
