#N canvas 3 471 993 443 12;
#X obj 802 141 r osc-in;
#X obj 37 407 dac~;
#X obj 39 191 noise~;
#X msg 38 113 \; pd dsp 1;
#X obj 38 82 loadbang;
#N canvas 63 100 496 257 OSC-IO 0;
#X obj 28 74 netreceive -u -b 6660;
#X obj 28 98 oscparse;
#X obj 28 122 list trim;
#X obj 238 152 netsend -u -b;
#X obj 258 100 loadbang;
#X msg 258 126 connect 255.255.255.255 5550;
#X text 30 41 command;
#X text 237 40 report;
#X text 52 14 ----------- OSC (external) -------------;
#X obj 28 154 outlet;
#X obj 238 75 inlet;
#X connect 0 0 1 0;
#X connect 1 0 2 0;
#X connect 2 0 9 0;
#X connect 4 0 5 0;
#X connect 5 0 3 0;
#X connect 10 0 3 0;
#X restore 238 100 pd OSC-IO;
#X obj 238 126 s osc-in;
#X obj 238 74 r osc-out;
#N canvas 0 218 664 405 ARD-IO 0;
#X obj 30 495 oscparse;
#X obj 38 30 inlet;
#X obj 47 280 slip/slipenc;
#X obj 50 357 slip/slipdec 65536;
#X obj 420 75 s \$0-to-comport;
#X obj 30 210 r \$0-to-comport;
#X msg 420 48 devices;
#X obj 420 23 loadbang;
#X obj 30 566 outlet;
#X obj 30 330 comport 0 115200;
#X obj 30 526 route list;
#X text 138 392 Convert from SLIP to a raw OSC message;
#X obj 123 420 bng 15 250 50 0 empty empty error 17 7 0 10 #fcfcfc #000000 #000000;
#X obj 142 474 bng 15 250 50 0 empty empty error 17 7 0 10 #fcfcfc #000000 #000000;
#N canvas 0 50 1195 915 slipToBytes 0;
#X obj 292 702 list store;
#X obj 293 806 route bang;
#X obj 281 309 select 192;
#X obj 750 475 select 219;
#X obj 813 672 select 220 221;
#X msg 801 726 192;
#X msg 848 724 219;
#X obj 823 637 t a b;
#N canvas 156 156 450 300 iterate 0;
#X obj 118 136 until;
#X obj 131 219 list store;
#X obj 152 103 t b b l;
#X obj 118 161 f;
#X obj 156 162 + 1;
#X msg 175 136 0, f 2;
#X msg 118 192 get \$1 1;
#X obj 159 28 inlet;
#X obj 175 266 outlet;
#X connect 0 0 3 0;
#X connect 1 0 8 0;
#X connect 1 1 0 1;
#X connect 2 0 0 0;
#X connect 2 1 5 0;
#X connect 2 2 1 1;
#X connect 3 0 4 0;
#X connect 3 0 6 0;
#X connect 4 0 3 1;
#X connect 5 0 3 1;
#X connect 6 0 1 0;
#X connect 7 0 2 0;
#X restore 281 261 pd iterate;
#X obj 366 1046 outlet decoded;
#X obj 639 1059 outlet error;
#N canvas 182 182 896 652 switcher 0;
#X obj 217 67 inlet;
#X obj 230 412 outlet out0;
#X obj 432 408 outlet out1;
#X obj 392 65 inlet select outlet;
#X obj 270 281 route 0 1;
#X obj 265 222 list prepend 0;
#X connect 0 0 5 0;
#X connect 3 0 5 1;
#X connect 4 0 1 0;
#X connect 4 1 2 0;
#X connect 5 0 4 0;
#X restore 798 586 pd switcher;
#X msg 692 781 append \$1;
#X msg 919 564 0;
#X msg 746 532 1;
#X obj 280 464 t b b b b;
#X msg 540 883 0;
#X msg 932 799 1;
#X obj 140 34 inlet list;
#N canvas 182 182 896 652 switcher 0;
#X obj 217 67 inlet;
#X obj 230 412 outlet out0;
#X obj 432 408 outlet out1;
#X obj 392 65 inlet select outlet;
#X obj 270 281 route 0 1;
#X obj 265 222 list prepend 0;
#X connect 0 0 5 0;
#X connect 3 0 5 1;
#X connect 4 0 1 0;
#X connect 4 1 2 0;
#X connect 5 0 4 0;
#X restore 468 942 pd switcher;
#X connect 0 0 1 0;
#X connect 1 1 19 0;
#X connect 2 0 15 0;
#X connect 2 1 3 0;
#X connect 3 0 14 0;
#X connect 3 1 11 0;
#X connect 4 0 5 0;
#X connect 4 1 6 0;
#X connect 4 2 17 0;
#X connect 5 0 12 0;
#X connect 6 0 12 0;
#X connect 7 0 4 0;
#X connect 7 1 13 0;
#X connect 8 0 2 0;
#X connect 11 0 12 0;
#X connect 11 1 7 0;
#X connect 12 0 0 0;
#X connect 13 0 11 1;
#X connect 14 0 11 1;
#X connect 15 0 16 0;
#X connect 15 1 0 1;
#X connect 15 2 0 0;
#X connect 16 0 19 1;
#X connect 17 0 19 1;
#X connect 18 0 8 0;
#X connect 19 0 9 0;
#X connect 19 1 10 0;
#X restore 30 396 pd slipToBytes;
#X text 154 444 Error checking : make sure the packet size is a multiple of 4;
#N canvas 156 156 1101 683 sizeIsMultOf4 0;
#X obj 157 132 list length;
#X obj 161 161 % 4;
#X obj 168 199 == 0;
#X obj 236 245 select 0;
#N canvas 182 182 896 652 switcher 0;
#X obj 217 67 inlet;
#X obj 230 412 outlet out0;
#X obj 432 408 outlet out1;
#X obj 392 65 inlet select outlet;
#X obj 270 281 route 0 1;
#X obj 265 222 list prepend 0;
#X connect 0 0 5 0;
#X connect 3 0 5 1;
#X connect 4 0 1 0;
#X connect 4 1 2 0;
#X connect 5 0 4 0;
#X restore 104 312 pd switcher;
#X obj 103 96 t a a b;
#X msg 270 90 0;
#X msg 238 284 1;
#X obj 246 434 outlet error;
#X obj 105 431 outlet valid;
#X obj 102 37 inlet list;
#X connect 0 0 1 0;
#X connect 1 0 2 0;
#X connect 2 0 3 0;
#X connect 3 0 7 0;
#X connect 4 0 9 0;
#X connect 4 1 8 0;
#X connect 5 0 4 0;
#X connect 5 1 0 0;
#X connect 5 2 6 0;
#X connect 6 0 4 1;
#X connect 7 0 4 1;
#X connect 10 0 5 0;
#X restore 30 447 pd sizeIsMultOf4;
#X obj 416 271 oscformat -f fsi echo;
#X msg 418 240 0.5 hello 420;
#X text 163 46 recieve message like this;
#N canvas 63 100 518 365 oscformat 0;
#X obj 107 115 list split 1;
#X obj 38 51 list;
#X obj 38 262 oscformat;
#X obj 38 79 t b b l, f 13;
#X obj 107 167 list prepend set;
#X obj 38 227 list trim;
#X obj 82 195 list;
#X obj 38 178 list;
#X text 183 79 split first element to be osc address;
#X obj 36 19 inlet;
#X obj 38 299 outlet;
#X connect 0 0 4 0;
#X connect 0 1 7 1;
#X connect 1 0 3 0;
#X connect 2 0 10 0;
#X connect 3 0 7 0;
#X connect 3 1 6 0;
#X connect 3 2 0 0;
#X connect 4 0 6 1;
#X connect 5 0 2 0;
#X connect 6 0 5 0;
#X connect 7 0 5 0;
#X connect 9 0 1 0;
#X restore 38 90 pd oscformat;
#X obj 38 125 s \$0-to-slip;
#X obj 47 249 r \$0-to-slip;
#X obj 416 307 s \$0-to-slip;
#X msg 406 157 close;
#X msg 462 157 open 1;
#X obj 422 195 s \$0-to-comport;
#X msg 97 46 needle 0;
#X connect 0 0 10 0;
#X connect 1 0 20 0;
#X connect 2 0 9 0;
#X connect 5 0 9 0;
#X connect 6 0 4 0;
#X connect 7 0 6 0;
#X connect 9 0 14 0;
#X connect 10 0 8 0;
#X connect 14 0 16 0;
#X connect 14 1 12 0;
#X connect 16 0 0 0;
#X connect 16 1 13 0;
#X connect 17 0 23 0;
#X connect 18 0 17 0;
#X connect 20 0 21 0;
#X connect 22 0 2 0;
#X connect 24 0 26 0;
#X connect 25 0 26 0;
#X connect 27 0 20 0;
#X restore 448 91 pd ARD-IO;
#X obj 452 357 route d;
#X obj 452 290 s to-arduino;
#X obj 448 65 r to-arduino;
#X obj 448 117 s from-arduino;
#X obj 452 329 r from-arduino;
#X msg 452 263 needle \$1;
#X floatatom 452 209 5 0 0 0 - - - 0;
#X floatatom 452 382 5 0 0 1 distance - - 0;
#X msg 495 209 0;
#X obj 586 394 s to-arduino;
#X msg 586 364 ledhue \$1;
#X obj 589 335 hsl 162 19 0 1 0 0 empty empty empty -2 -10 0 12 #fcfcfc #000000 #000000 0 1;
#X obj 589 258 hsl 162 19 0 1 0 0 empty empty empty -2 -10 0 12 #fcfcfc #000000 #000000 0 1;
#X obj 589 176 hsl 162 19 0 1 0 0 empty empty empty -2 -10 0 12 #fcfcfc #000000 #000000 0 1;
#X msg 586 202 leds \$1 \$1 \$1 \$1 \$1 \$1 \$1 \$1 \$1 \$1;
#X msg 586 283 ledsat \$1;
#X obj 586 229 s to-arduino;
#X obj 586 306 s to-arduino;
#X text 445 26 --- ARDUINO ---;
#X text 230 34 --- OSC ---;
#X text 35 39 --- AUDIO ---;
#X obj 802 172 route leds;
#X msg 56 316 \$1 10;
#X obj 37 375 *~;
#X obj 59 245 r osc-in;
#X obj 57 278 route gain;
#X obj 138 257 loadbang;
#X msg 138 281 1;
#X obj 50 343 line~;
#X obj 837 234 r osc-in;
#X obj 837 265 route ledsat;
#X obj 771 356 r osc-in;
#X obj 771 387 route ledhue;
#X obj 361 204 r osc-in;
#X obj 361 235 route needle;
#X obj 272 454 s osc-out;
#X obj 140 77 loadbang;
#X obj 140 140 oscformat hi;
#X obj 140 164 s osc-out;
#X msg 140 110 1;
#N canvas 63 100 450 300 variables 0;
#X obj 21 18 r STARTTIME;
#X obj 123 18 r RANDOM;
#X obj 272 19 r MACADDRESS;
#X obj 19 75 print STARTTIME;
#X obj 143 73 print RANDOM;
#X obj 266 73 print MACADDRESS;
#X connect 0 0 3 0;
#X connect 1 0 4 0;
#X connect 2 0 5 0;
#X restore 621 30 pd variables;
#X obj 338 309 r MACADDRESS;
#X obj 272 426 oscformat;
#X obj 39 215 *~ 0.001;
#X msg 219 286 list d8 3a dd bb 27 87;
#X obj 223 336 list prepend set;
#X obj 223 360 list trim;
#X floatatom 325 377 5 0 0 0 - - - 0;
#X connect 0 0 30 0;
#X connect 2 0 52 0;
#X connect 4 0 3 0;
#X connect 5 0 6 0;
#X connect 7 0 5 0;
#X connect 8 0 12 0;
#X connect 9 0 16 0;
#X connect 9 0 51 0;
#X connect 11 0 8 0;
#X connect 13 0 9 0;
#X connect 14 0 10 0;
#X connect 15 0 14 0;
#X connect 17 0 14 0;
#X connect 19 0 18 0;
#X connect 20 0 19 0;
#X connect 21 0 24 0;
#X connect 22 0 23 0;
#X connect 23 0 25 0;
#X connect 24 0 26 0;
#X connect 30 0 23 0;
#X connect 31 0 37 0;
#X connect 32 0 1 0;
#X connect 33 0 34 0;
#X connect 34 0 31 0;
#X connect 35 0 36 0;
#X connect 36 0 31 0;
#X connect 37 0 32 1;
#X connect 38 0 39 0;
#X connect 39 0 24 0;
#X connect 40 0 41 0;
#X connect 41 0 19 0;
#X connect 42 0 43 0;
#X connect 43 0 14 0;
#X connect 45 0 48 0;
#X connect 46 0 47 0;
#X connect 48 0 46 0;
#X connect 50 0 54 0;
#X connect 51 0 44 0;
#X connect 52 0 32 0;
#X connect 53 0 54 0;
#X connect 54 0 55 0;
#X connect 55 0 51 0;
#X connect 56 0 51 0;
