#N canvas 735 37 735 891 12;
#X declare -path ./bop;
#X declare -path ./bop/bop.p;
#X obj 97 40 declare -path ./bop;
#X text 1231 1593 hi there! you are great! :);
#X obj 612 1383 outlet~;
#X obj 947 1393 outlet;
#X obj 743 1047 r \$0-in;
#X obj 743 1074 route hp;
#X obj 611 1111 hip~ 0, f 16;
#X obj 38 173 s \$0-midi;
#X obj 217 170 s \$0-in;
#X text 491 1112 hi pass filter;
#X obj 38 77 route list bang, f 26;
#X text 225 143 < messages;
#X text 48 113 < Lists starting with numbers, f 12;
#X obj 611 161 bop.module/streamsample~;
#X obj 611 45 r \$0-midi;
#X obj 623 101 r \$0-in;
#X obj 38 40 inlet;
#X obj 657 1233 route gain;
#X obj 657 1200 r \$0-in;
#N canvas 18 168 450 300 gain 0;
#X obj 126 51 inlet~;
#X obj 133 268 outlet~;
#X msg 152 157 \$1 10;
#X obj 133 216 *~;
#X obj 151 92 loadbang;
#X msg 151 116 1;
#X obj 151 184 line~;
#X obj 232 76 inlet;
#X obj 233 267 outlet;
#X connect 0 0 3 0;
#X connect 2 0 6 0;
#X connect 3 0 1 0;
#X connect 4 0 5 0;
#X connect 5 0 2 0;
#X connect 6 0 3 1;
#X connect 7 0 2 0;
#X connect 7 0 8 0;
#X restore 611 1262 pd gain;
#X text 555 1264 gain;
#X obj 623 131 route sample;
#X text 532 161 sample;
#X obj 664 298 r \$0-in;
#X obj 664 328 route noise;
#N canvas 133 313 666 488 noise 0;
#X obj 126 51 inlet~;
#X obj 133 268 outlet~;
#X msg 212 157 \$1 10;
#X obj 193 216 *~;
#X obj 211 42 loadbang;
#X obj 211 184 line~;
#X obj 148 107 noise~;
#X obj 278 82 inlet;
#X msg 211 66 0;
#X obj 278 266 outlet;
#X obj 148 131 *~ 0.1;
#X connect 0 0 1 0;
#X connect 2 0 5 0;
#X connect 3 0 1 0;
#X connect 4 0 8 0;
#X connect 5 0 3 1;
#X connect 6 0 10 0;
#X connect 7 0 2 0;
#X connect 7 0 9 0;
#X connect 8 0 2 0;
#X connect 10 0 3 0;
#X restore 611 366 pd noise;
#X text 534 366 noise;
#X obj 1028 1245 route report;
#X obj 1028 1213 r \$0-in;
#X obj 947 1309 list prepend;
#X obj 947 1333 route 1;
#X text 1052 1308 gate reporting;
#X obj 636 499 r \$0-in;
#X obj 636 532 route casio;
#X obj 776 231 s \$0-rpt;
#X obj 947 1216 r \$0-rpt;
#X obj 727 636 s \$0-rpt;
#X obj 727 601 list prepend casio;
#X obj 776 199 list prepend sample;
#X obj 238 376 r \$0-in;
#X obj 238 406 route sequence;
#X obj 40 440 bop.module/sequence;
#A saved === DEFAULT SETTINGS \; --- custom sample path \; sample path ../../samples \; gain 1 \; === CASIO BOOT TONE \; casio stop \; casio gain 0.1 \; casio release 1 \; casio sustain 0 \; casio decay 1 \; casio attack 0.01 \; casio wave-2 4 \; casio wave-1 3 \; --- sweep 0 to 0.8 in 2000ms \; casio filter 0 0.8 2000 \; === PLAY NOTES \; casio 60 127 \; casio 67 127 \; casio 74 127 \; - 2000 \; casio stop \;;
#X obj 238 481 s \$0-rpt;
#X obj 238 449 list prepend sequence;
#X msg 180 316 open;
#X obj 1028 1278 tgl 19 0 empty empty empty 0 -10 0 12 #fcfcfc #000000 #000000 0 1;
#X obj 170 481 s \$0-in;
#X msg 76 288 stop;
#X msg 116 316 loop \$1;
#X obj 116 288 tgl 19 0 empty empty empty 0 -10 0 12 #fcfcfc #000000 #000000 0 1;
#X msg 40 288 go;
#X obj 611 572 bop.module/casio~;
#X obj 236 292 loadbang;
#X text 543 574 casio;
#X obj 657 1326 s \$0-rpt;
#X obj 657 1291 list prepend gain;
#X obj 743 1141 s \$0-rpt;
#X obj 743 1106 list prepend hp;
#X obj 664 426 s \$0-rpt;
#X obj 664 401 list prepend noise;
#X text 39 254 SEQUENCER----------------------------------------------;
#X msg 236 316 read seq/load \, loop 0 \, go;
#X obj 639 742 r \$0-in;
#X obj 733 904 s \$0-rpt;
#N canvas 555 223 1116 688 module.leds 1;
#X msg 600 162 needle \$1;
#X msg 291 662 ledhue \$1;
#X msg 298 457 ledsat \$1;
#X text 534 321 LEDs;
#X text 681 159 motor;
#X obj 600 189 s ard-out;
#X obj 446 652 s ard-out;
#X obj 298 480 s ard-out;
#X obj 291 692 s ard-out;
#X obj 600 114 route needle;
#X obj 67 101 inlet~, f 12;
#X obj 148 292 outlet;
#X obj 148 149 bop.p.inout \$0;
#X obj 816 98 r \$0-stop;
#X obj 830 120 r \$0-params;
#X obj 799 76 r \$0-dump;
#X obj 63 60 declare -path ./bop/bop.p;
#X obj 446 561 list prepend leds;
#X obj 446 605 list trim;
#X obj 939 1024 +;
#X obj 878 975 t b f;
#X floatatom 925 1136 5 0 0 0 - - - 0;
#X obj 874 1025 float;
#X obj 926 1103 abs;
#X obj 949 794 random 2;
#X obj 949 818 sel 0 1;
#X obj 949 762 sel 1;
#X obj 884 689 t f f;
#X msg 942 853 -1;
#X msg 980 855 1;
#X floatatom 871 908 5 0 0 0 - - - 0;
#X obj 884 661 tgl 19 0 empty empty empty 0 -10 0 12 #fcfcfc #000000 #000000 0 1;
#X obj 926 1070 % 10;
#X obj 872 759 metro 100;
#X obj 1003 1076 pack f f f f f f f f f f;
#X obj 883 476 route mode;
#X obj 882 559 sel scan breathe fadeout fadein;
#X obj 885 609 bng 19 250 50 0 empty empty empty 0 -10 0 12 #fcfcfc #000000 #000000;
#X obj 883 515 symbol;
#X obj 66 291 outlet~;
#X obj 302 190 bop.module/sequence;
#A saved array 1 1 0 0 0 0 0 0 0 0 \; - 50 \; array 0 1 1 0 0 0 0 0 0 0 \; - 50 \; array 0 0 1 1 0 0 0 0 0 0 \; - 50 \; array 0 0 0 1 1 0 0 0 0 0 \; - 50 \; array 0 0 0 0 1 1 0 0 0 0 \; - 50 \; array 0 0 0 0 0 1 1 0 0 0 \; - 50 \; array 0 0 0 0 0 0 1 1 0 0 \; - 50 \; array 0 0 0 0 0 0 0 1 1 0 \; - 50 \; array 0 0 0 0 0 0 0 0 1 1 \; - 50 \; array 0 0 0 0 0 0 0 0 0 1 \; - 50 \; array 0 0 0 0 0 0 0 0 1 1 \; - 50 \; array 0 0 0 0 0 0 0 1 1 0 \; - 50 \; array 0 0 0 0 0 0 1 1 0 0 \; - 50 \; array 0 0 0 0 0 1 1 0 0 0 \; - 50 \; array 0 0 0 0 1 1 0 0 0 0 \; - 50 \; array 0 0 0 1 1 0 0 0 0 0 \; - 50 \; array 0 0 1 1 0 0 0 0 0 0 \; - 50 \; array 0 1 1 0 0 0 0 0 0 0 \; - 50 \; array 1 1 0 0 0 0 0 0 0 0 \; - 50 \;;
#X obj 372 152 route sequence;
#X obj 446 363 route array, f 64;
#X obj 445 528 list;
#X msg 478 486 \$1 \$1 \$1 \$1 \$1 \$1 \$1 \$1 \$1 \$1;
#X obj 266 426 t b f;
#X obj 266 519 s \$0-updateleds;
#X obj 259 723 s \$0-updateleds;
#X obj 259 632 t b f;
#X obj 465 419 r \$0-updateleds;
#X obj 523 605 print;
#X obj 143 398 bop.p.param \$0 sat 1;
#X obj 136 593 bop.p.param \$0 hue 220;
#X obj 472 450 bop.p.param \$0 all 1;
#X connect 0 0 5 0;
#X connect 1 0 8 0;
#X connect 2 0 7 0;
#X connect 9 0 0 0;
#X connect 10 0 39 0;
#X connect 10 1 12 0;
#X connect 10 1 41 0;
#X connect 12 0 11 0;
#X connect 17 0 18 0;
#X connect 18 0 6 0;
#X connect 18 0 50 0;
#X connect 19 0 22 1;
#X connect 19 0 32 0;
#X connect 20 0 22 0;
#X connect 20 1 19 1;
#X connect 22 0 19 0;
#X connect 23 0 21 0;
#X connect 24 0 25 0;
#X connect 25 0 28 0;
#X connect 25 1 29 0;
#X connect 26 0 24 0;
#X connect 27 0 33 0;
#X connect 27 1 26 0;
#X connect 28 0 30 0;
#X connect 29 0 30 0;
#X connect 30 0 20 0;
#X connect 31 0 27 0;
#X connect 32 0 23 0;
#X connect 33 0 30 0;
#X connect 35 0 38 0;
#X connect 36 0 37 0;
#X connect 38 0 36 0;
#X connect 40 1 11 0;
#X connect 40 1 42 0;
#X connect 41 0 40 0;
#X connect 41 1 42 0;
#X connect 42 0 43 0;
#X connect 42 1 35 0;
#X connect 43 0 17 0;
#X connect 44 0 43 0;
#X connect 45 0 46 0;
#X connect 45 1 2 0;
#X connect 48 0 47 0;
#X connect 48 1 1 0;
#X connect 49 0 43 0;
#X connect 51 1 45 0;
#X connect 52 1 48 0;
#X connect 53 1 44 0;
#X restore 609 831 pd module.leds;
#X obj 974 316 route d;
#X floatatom 974 341 5 0 0 1 distance - - 0;
#X text 971 257 sensor;
#X obj 974 288 r ard-in;
#X obj 733 865 list prepend leds;
#X obj 639 772 route leds;
#X text 473 830 LEDs \; has own sequencer;
#X connect 4 0 5 0;
#X connect 5 0 6 1;
#X connect 5 0 57 0;
#X connect 6 0 19 0;
#X connect 10 0 7 0;
#X connect 10 2 8 0;
#X connect 13 0 25 0;
#X connect 13 1 38 0;
#X connect 14 0 13 0;
#X connect 15 0 21 0;
#X connect 16 0 10 0;
#X connect 17 0 19 1;
#X connect 18 0 17 0;
#X connect 19 0 2 0;
#X connect 19 1 55 0;
#X connect 21 0 13 0;
#X connect 23 0 24 0;
#X connect 24 0 25 1;
#X connect 25 0 51 0;
#X connect 25 1 59 0;
#X connect 27 0 45 0;
#X connect 28 0 27 0;
#X connect 29 0 30 0;
#X connect 30 0 3 0;
#X connect 32 0 33 0;
#X connect 33 0 51 0;
#X connect 35 0 29 0;
#X connect 37 0 36 0;
#X connect 38 0 34 0;
#X connect 39 0 40 0;
#X connect 40 0 41 0;
#X connect 40 0 43 0;
#X connect 41 1 46 0;
#X connect 43 0 42 0;
#X connect 44 0 41 0;
#X connect 45 0 29 1;
#X connect 47 0 41 0;
#X connect 48 0 41 0;
#X connect 49 0 48 0;
#X connect 50 0 41 0;
#X connect 51 0 64 0;
#X connect 51 1 37 0;
#X connect 52 0 61 0;
#X connect 55 0 54 0;
#X connect 57 0 56 0;
#X connect 59 0 58 0;
#X connect 61 0 41 0;
#X connect 62 0 70 0;
#X connect 64 0 6 0;
#X connect 64 1 69 0;
#X connect 65 0 66 0;
#X connect 68 0 65 0;
#X connect 69 0 63 0;
#X connect 70 0 64 0;
