#N canvas 92 129 450 300 12;
#X msg 112 103 stop;
#X obj 68 136 outlet;
#X obj 68 41 r \$1-in;
#X obj 68 65 route \$2 stop;
#X connect 0 0 1 0;
#X connect 2 0 3 0;
#X connect 3 0 1 0;
#X connect 3 1 0 0;
