#N canvas 0 37 735 891 12;
#X declare -path ./bop;
#X obj 97 40 declare -path ./bop;
#X text 1231 1593 hi there! you are great! :);
#X obj 612 1633 outlet~;
#X obj 947 1643 outlet;
#X obj 743 1297 r \$0-in;
#X obj 743 1324 route hp;
#X obj 611 1361 hip~ 0, f 16;
#X obj 38 173 s \$0-midi;
#X obj 217 170 s \$0-in;
#X text 491 1362 hi pass filter;
#X obj 38 77 route list bang, f 26;
#X text 225 143 < messages;
#X text 48 113 < Lists starting with numbers, f 12;
#X obj 611 411 bop.module/streamsample~;
#X obj 611 305 r \$0-midi;
#X obj 623 351 r \$0-in;
#X obj 38 40 inlet;
#X obj 657 1483 route gain;
#X obj 657 1450 r \$0-in;
#N canvas 18 168 450 300 gain 0;
#X obj 126 51 inlet~;
#X obj 133 268 outlet~;
#X msg 152 157 \$1 10;
#X obj 133 216 *~;
#X obj 151 92 loadbang;
#X msg 151 116 1;
#X obj 151 184 line~;
#X obj 232 76 inlet;
#X obj 233 267 outlet;
#X connect 0 0 3 0;
#X connect 2 0 6 0;
#X connect 3 0 1 0;
#X connect 4 0 5 0;
#X connect 5 0 2 0;
#X connect 6 0 3 1;
#X connect 7 0 2 0;
#X connect 7 0 8 0;
#X restore 611 1512 pd gain;
#X text 555 1514 gain;
#X obj 623 381 route sample;
#X text 532 411 sample;
#X obj 664 558 r \$0-in;
#X obj 664 588 route noise;
#N canvas 0 244 666 488 noise 1;
#X obj 126 51 inlet~;
#X obj 133 458 outlet~;
#X msg 256 157 \$1 10;
#X obj 193 376 *~;
#X obj 255 79 loadbang;
#X obj 256 184 line~;
#X obj 193 107 noise~;
#X obj 323 52 inlet;
#X msg 255 103 0;
#X obj 323 266 outlet;
#X obj 468 152 route d;
#X text 465 93 sensor;
#X obj 468 124 r ard-in;
#X obj 468 182 bop.p.scale 9 81 1 0;
#X obj 340 93 route float;
#X obj 341 182 route sensor;
#X obj 423 241 *;
#X msg 424 278 \$1 10;
#X obj 424 308 line~;
#X obj 256 327 +~;
#X obj 193 131 *~ 0.75;
#X msg 338 224 sensor \$1;
#X connect 0 0 1 0;
#X connect 2 0 5 0;
#X connect 3 0 1 0;
#X connect 4 0 8 0;
#X connect 5 0 19 0;
#X connect 6 0 20 0;
#X connect 7 0 9 0;
#X connect 7 0 14 0;
#X connect 8 0 2 0;
#X connect 10 0 13 0;
#X connect 10 0 21 0;
#X connect 12 0 10 0;
#X connect 13 0 16 0;
#X connect 14 0 2 0;
#X connect 14 1 15 0;
#X connect 16 0 17 0;
#X connect 17 0 18 0;
#X connect 18 0 19 1;
#X connect 19 0 3 1;
#X connect 20 0 3 0;
#X connect 21 0 9 0;
#X restore 611 626 pd noise;
#X text 534 626 noise;
#X obj 1028 1495 route report;
#X obj 1028 1463 r \$0-in;
#X obj 947 1559 list prepend;
#X obj 947 1583 route 1;
#X text 1052 1558 gate reporting;
#X obj 636 779 r \$0-in;
#X obj 636 812 route casio;
#X obj 776 481 s \$0-rpt;
#X obj 947 1466 r \$0-rpt;
#X obj 727 916 s \$0-rpt;
#X obj 727 881 list prepend casio;
#X obj 776 449 list prepend sample;
#X obj 238 376 r \$0-in;
#X obj 238 406 route sequence;
#X obj 40 440 bop.module/sequence;
#A saved === DEFAULT SETTINGS \; --- custom sample path \; sample path ../../samples \; gain 1 \; leds all 1 0 2000 \; === CASIO BOOT TONE \; casio stop \; casio gain 0.1 \; casio release 1 \; casio sustain 0 \; casio decay 1 \; casio attack 0.01 \; casio wave-2 4 \; casio wave-1 3 \; --- sweep 0 to 0.8 in 2000ms \; casio filter 0 0.8 2000 \; leds all 1 0 2000 \; === PLAY NOTES \; casio 60 127 \; casio 67 127 \; casio 74 127 \; - 2000 \; leds all 0 \; casio stop \;;
#X obj 238 481 s \$0-rpt;
#X obj 238 449 list prepend sequence;
#X msg 180 316 open;
#X obj 1028 1528 tgl 19 0 empty empty empty 0 -10 0 12 #fcfcfc #000000 #000000 0 1;
#X obj 170 481 s \$0-in;
#X msg 76 288 stop;
#X msg 116 316 loop \$1;
#X obj 116 288 tgl 19 0 empty empty empty 0 -10 0 12 #fcfcfc #000000 #000000 0 1;
#X msg 40 288 go;
#X obj 611 852 bop.module/casio~;
#X obj 236 292 loadbang;
#X text 543 854 casio;
#X obj 657 1576 s \$0-rpt;
#X obj 657 1541 list prepend gain;
#X obj 743 1391 s \$0-rpt;
#X obj 743 1356 list prepend hp;
#X obj 664 686 s \$0-rpt;
#X obj 664 661 list prepend noise;
#X text 39 254 SEQUENCER----------------------------------------------;
#X msg 236 316 read seq/load \, loop 0 \, go;
#X obj 639 1002 r \$0-in;
#X obj 683 1154 s \$0-rpt;
#X obj 683 1115 list prepend leds;
#X obj 639 1032 route leds;
#X text 473 1080 LEDs \; has own sequencer;
#X obj 143 610 r \$0-in;
#X obj 232 802 s \$0-rpt;
#X obj 143 640 route gen;
#X obj 232 763 list prepend gen;
#X obj 225 608 r \$0-rpt;
#X obj 225 632 route sample;
#X obj 225 656 route done;
#X msg 225 681 done;
#X text 19 729 note generator;
#X obj 143 723 module.gen;
#X obj 609 1081 module.leds;
#X obj 130 766 route midi;
#X obj 130 803 s \$0-midi;
#X connect 4 0 5 0;
#X connect 5 0 6 1;
#X connect 5 0 57 0;
#X connect 6 0 19 0;
#X connect 10 0 7 0;
#X connect 10 2 8 0;
#X connect 13 0 25 0;
#X connect 13 1 38 0;
#X connect 14 0 13 0;
#X connect 15 0 21 0;
#X connect 16 0 10 0;
#X connect 17 0 19 1;
#X connect 18 0 17 0;
#X connect 19 0 2 0;
#X connect 19 1 55 0;
#X connect 21 0 13 0;
#X connect 23 0 24 0;
#X connect 24 0 25 1;
#X connect 25 0 51 0;
#X connect 25 1 59 0;
#X connect 27 0 45 0;
#X connect 28 0 27 0;
#X connect 29 0 30 0;
#X connect 30 0 3 0;
#X connect 32 0 33 0;
#X connect 33 0 51 0;
#X connect 35 0 29 0;
#X connect 37 0 36 0;
#X connect 38 0 34 0;
#X connect 39 0 40 0;
#X connect 40 0 41 0;
#X connect 40 0 43 0;
#X connect 41 1 46 0;
#X connect 43 0 42 0;
#X connect 44 0 41 0;
#X connect 45 0 29 1;
#X connect 47 0 41 0;
#X connect 48 0 41 0;
#X connect 49 0 48 0;
#X connect 50 0 41 0;
#X connect 51 0 77 0;
#X connect 51 1 37 0;
#X connect 52 0 61 0;
#X connect 55 0 54 0;
#X connect 57 0 56 0;
#X connect 59 0 58 0;
#X connect 61 0 41 0;
#X connect 62 0 65 0;
#X connect 64 0 63 0;
#X connect 65 0 77 0;
#X connect 67 0 69 0;
#X connect 69 0 76 0;
#X connect 70 0 68 0;
#X connect 71 0 72 0;
#X connect 72 0 73 0;
#X connect 73 0 74 0;
#X connect 74 0 76 0;
#X connect 76 1 70 0;
#X connect 76 1 78 0;
#X connect 77 0 6 0;
#X connect 77 1 64 0;
#X connect 78 0 79 0;
