#N canvas 18 107 1059 762 12;
#X declare -path ./bop;
#X obj 41 63 declare -path ./bop;
#X text 41 33 hi there! you are great! :);
#X obj 556 1023 outlet~;
#X obj 781 1023 outlet;
#X obj 664 707 r \$0-in;
#X obj 664 734 route hp;
#X obj 555 771 hip~ 0, f 16;
#X obj 38 303 s \$0-midi;
#X obj 217 300 s \$0-in;
#X text 435 772 hi pass filter;
#X obj 38 197 route list bang, f 26;
#X text 225 263 < messages;
#X text 48 233 < Lists starting with numbers, f 12;
#X obj 551 161 bop.module/streamsample~;
#X obj 550 45 r \$0-midi;
#X obj 623 71 r \$0-in;
#X obj 38 140 inlet;
#X obj 601 913 route gain;
#X obj 601 880 r \$0-in;
#N canvas 18 168 450 300 gain 0;
#X obj 126 51 inlet~;
#X obj 133 268 outlet~;
#X msg 152 157 \$1 10;
#X obj 133 216 *~;
#X obj 171 102 loadbang;
#X msg 171 126 1;
#X obj 151 184 line~;
#X obj 152 76 inlet;
#X connect 0 0 3 0;
#X connect 2 0 6 0;
#X connect 3 0 1 0;
#X connect 4 0 5 0;
#X connect 5 0 2 0;
#X connect 6 0 3 1;
#X connect 7 0 2 0;
#X restore 555 942 pd gain;
#X text 499 944 gain;
#X obj 623 111 route sample;
#X text 472 161 sample;
#X obj 604 298 r \$0-in;
#X obj 604 338 route noise;
#N canvas 165 377 666 488 noise 0;
#X obj 126 51 inlet~;
#X obj 133 268 outlet~;
#X msg 212 157 \$1 10;
#X obj 193 216 *~;
#X obj 231 102 loadbang;
#X obj 211 184 line~;
#X obj 148 107 noise~;
#X obj 148 131 *~ 0.01;
#X obj 218 62 inlet;
#X msg 231 126 0;
#X connect 0 0 1 0;
#X connect 2 0 5 0;
#X connect 3 0 1 0;
#X connect 4 0 9 0;
#X connect 5 0 3 1;
#X connect 6 0 7 0;
#X connect 7 0 3 0;
#X connect 8 0 2 0;
#X connect 9 0 2 0;
#X restore 551 366 pd noise;
#X text 474 366 noise;
#X obj 862 895 route report;
#X obj 862 863 r \$0-in;
#X obj 781 959 list prepend;
#X obj 781 983 route 1;
#X text 886 958 gate reporting;
#X obj 606 469 r \$0-in;
#X obj 606 502 route casio;
#N canvas 84 172 1024 637 casio 0;
#X obj 298 307 bop.module/casio~;
#X obj 394 244 pack;
#X msg 392 144 64;
#X obj 392 182 makenote 127 1000;
#X msg 571 265 stop;
#X obj 514 29 loadbang;
#X obj 514 53 delay 500;
#X obj 514 77 t b b;
#X obj 245 184 inlet~;
#X obj 249 415 outlet~;
#X obj 465 32 bng 19 250 50 0 empty empty empty 0 -10 0 12 #fcfcfc #000000 #000000;
#X obj 305 159 inlet;
#X obj 463 410 outlet;
#X msg 551 219 gain 1 \, release 0.2 \, sustain 0 \, decay 0.3 \, attack 0 \, wave-2 1 \, wave-1 1 \, filter 0.8;
#X connect 0 0 9 0;
#X connect 0 1 12 0;
#X connect 1 0 0 0;
#X connect 2 0 3 0;
#X connect 3 0 1 0;
#X connect 3 1 1 1;
#X connect 4 0 0 0;
#X connect 5 0 6 0;
#X connect 6 0 7 0;
#X connect 7 0 2 0;
#X connect 7 1 13 0;
#X connect 8 0 9 0;
#X connect 10 0 7 0;
#X connect 11 0 0 0;
#X connect 13 0 0 0;
#X restore 553 528 pd casio;
#X obj 716 231 s \$0-rpt;
#X obj 781 866 r \$0-rpt;
#X obj 606 596 s \$0-rpt;
#X obj 606 561 list prepend casio;
#X obj 716 199 list prepend sample;
#X obj 40 416 r \$0-in;
#X obj 40 446 route sequence;
#X obj 40 510 bop.module/sequence;
#A saved hi 1 \; - 1000 \;;
#X obj 170 583 s \$0-rpt;
#X obj 170 551 list prepend sequence;
#X msg 152 446 open;
#X obj 862 928 tgl 19 0 empty empty empty 0 -10 0 12 #fcfcfc #000000 #000000 0 1;
#X obj 100 551 s \$0-in;
#X msg 299 446 stop;
#X text 39 384 SEQUENCER;
#X msg 198 446 loop \$1;
#X obj 198 418 tgl 19 0 empty empty empty 0 -10 0 12 #fcfcfc #000000 #000000 0 1;
#X msg 263 446 go;
#X text 452 519 casio \; chime on load \; todo - put in sequencer \;, f 11;
#X connect 4 0 5 0;
#X connect 5 0 6 1;
#X connect 6 0 19 0;
#X connect 10 0 7 0;
#X connect 10 2 8 0;
#X connect 13 0 25 0;
#X connect 13 1 39 0;
#X connect 14 0 13 0;
#X connect 15 0 21 0;
#X connect 16 0 10 0;
#X connect 17 0 19 1;
#X connect 18 0 17 0;
#X connect 19 0 2 0;
#X connect 21 0 13 0;
#X connect 23 0 24 0;
#X connect 24 0 25 1;
#X connect 25 0 34 0;
#X connect 27 0 46 0;
#X connect 28 0 27 0;
#X connect 29 0 30 0;
#X connect 30 0 3 0;
#X connect 32 0 33 0;
#X connect 33 0 34 1;
#X connect 34 0 6 0;
#X connect 34 1 38 0;
#X connect 36 0 29 0;
#X connect 38 0 37 0;
#X connect 39 0 35 0;
#X connect 40 0 41 0;
#X connect 41 0 42 0;
#X connect 42 1 44 0;
#X connect 42 1 47 0;
#X connect 44 0 43 0;
#X connect 45 0 42 0;
#X connect 46 0 29 1;
#X connect 48 0 42 0;
#X connect 50 0 42 0;
#X connect 51 0 50 0;
#X connect 52 0 42 0;
