#N canvas 576 37 874 891 12;
#X declare -path ./bop;
#X obj 97 40 declare -path ./bop;
#X text 1201 1867 hi there! you are great! :);
#X obj 642 1373 outlet~;
#X obj 977 1383 outlet;
#X obj 641 1101 hip~ 0, f 16;
#X obj 38 173 s \$0-midi;
#X obj 217 180 s \$0-in;
#X text 521 1102 hi pass filter;
#X obj 38 77 route list bang, f 26;
#X text 225 153 < messages;
#X text 48 113 < Lists starting with numbers, f 12;
#X obj 641 141 bop.module/streamsample~;
#X obj 641 5 r \$0-midi;
#X obj 38 40 inlet;
#N canvas 18 168 680 616 gain 0;
#X obj 126 51 inlet~;
#X obj 133 388 outlet~;
#X msg 152 157 \$1 10;
#X obj 133 306 *~;
#X obj 151 92 loadbang;
#X msg 151 116 1;
#X obj 151 184 line~;
#X obj 232 76 inlet;
#X obj 233 267 outlet;
#X obj 468 152 route d;
#X text 465 93 sensor;
#X obj 468 124 r ard-in;
#X obj 340 93 route float;
#X obj 341 182 route sensor;
#X obj 423 241 *;
#X msg 424 278 \$1 10;
#X obj 424 308 line~;
#X obj 256 327 +~;
#X obj 424 335 pow~ 4;
#X obj 133 349 clip~ -1 1;
#X connect 0 0 3 0;
#X connect 2 0 6 0;
#X connect 3 0 19 0;
#X connect 4 0 5 0;
#X connect 5 0 2 0;
#X connect 6 0 17 0;
#X connect 7 0 8 0;
#X connect 7 0 12 0;
#X connect 9 0 14 0;
#X connect 11 0 9 0;
#X connect 12 0 2 0;
#X connect 12 1 13 0;
#X connect 13 0 14 1;
#X connect 14 0 15 0;
#X connect 15 0 16 0;
#X connect 16 0 18 0;
#X connect 17 0 3 1;
#X connect 18 0 17 1;
#X connect 19 0 1 0;
#X restore 641 1252 pd gain;
#X text 585 1254 gain;
#X text 562 141 sample;
#N canvas 0 244 666 488 noise 1;
#X obj 126 32 inlet~;
#X obj 133 458 outlet~;
#X msg 256 157 \$1 10;
#X obj 193 376 *~;
#X obj 255 79 loadbang;
#X obj 256 184 line~;
#X obj 323 52 inlet;
#X msg 255 103 0;
#X obj 323 266 outlet;
#X obj 468 152 route d;
#X text 465 93 sensor;
#X obj 468 124 r ard-in;
#X obj 340 93 route float;
#X obj 341 182 route sensor;
#X obj 423 241 *;
#X msg 424 278 \$1 10;
#X obj 424 308 line~;
#X obj 256 327 +~;
#X obj 163 122 noise~;
#X obj 148 270 lop~ 4000;
#X obj 164 160 pow~ 16;
#X obj 147 70 noise~;
#X obj 148 224 *~;
#X obj 147 94 pow~ 2;
#X obj 424 335 pow~ 0.5;
#X connect 0 0 1 0;
#X connect 2 0 5 0;
#X connect 3 0 1 0;
#X connect 4 0 7 0;
#X connect 5 0 17 0;
#X connect 6 0 8 0;
#X connect 6 0 12 0;
#X connect 7 0 2 0;
#X connect 9 0 14 0;
#X connect 11 0 9 0;
#X connect 12 0 2 0;
#X connect 12 1 13 0;
#X connect 13 0 14 1;
#X connect 14 0 15 0;
#X connect 15 0 16 0;
#X connect 16 0 24 0;
#X connect 17 0 3 1;
#X connect 18 0 20 0;
#X connect 19 0 3 0;
#X connect 20 0 22 1;
#X connect 21 0 23 0;
#X connect 22 0 19 0;
#X connect 23 0 22 0;
#X connect 24 0 17 1;
#X restore 641 356 pd noise;
#X text 564 356 noise;
#X obj 1058 1235 route report;
#X obj 1058 1203 r \$0-in;
#X obj 977 1299 list prepend;
#X obj 977 1323 route 1;
#X text 1082 1298 gate reporting;
#X obj 806 211 s \$0-rpt;
#X obj 977 1206 r \$0-rpt;
#X obj 757 646 s \$0-rpt;
#X obj 757 611 list prepend casio;
#X obj 806 179 list prepend sample;
#X obj 40 440 bop.module/sequence;
#A saved === DEFAULT SETTINGS \; --- custom sample path \; sample path ../../samples \; gain 1 \; leds all 1 0 2000 \; === CASIO BOOT TONE \; casio stop \; casio gain 0.1 \; casio release 1 \; casio sustain 0 \; casio decay 1 \; casio attack 0.01 \; casio wave-2 4 \; casio wave-1 3 \; --- sweep 0 to 0.8 in 2000ms \; casio filter 0 0.8 2000 \; leds all 1 0 2000 \; === PLAY NOTES \; casio 60 127 \; casio 67 127 \; casio 74 127 \; - 2000 \; leds all 0 \; casio stop \;;
#X obj 238 481 s \$0-rpt;
#X obj 238 449 list prepend sequence;
#X msg 180 316 open;
#X obj 1058 1268 tgl 19 0 empty empty empty 0 -10 0 12 #fcfcfc #000000 #000000 0 1;
#X obj 170 481 s \$0-in;
#X msg 76 288 stop;
#X msg 116 316 loop \$1;
#X obj 116 288 tgl 19 0 empty empty empty 0 -10 0 12 #fcfcfc #000000 #000000 0 1;
#X msg 40 288 go;
#X obj 641 582 bop.module/casio~;
#X obj 236 292 loadbang;
#X text 573 584 casio;
#X obj 687 1316 s \$0-rpt;
#X obj 687 1281 list prepend gain;
#X obj 773 1131 s \$0-rpt;
#X obj 773 1096 list prepend hp;
#X obj 694 416 s \$0-rpt;
#X obj 694 391 list prepend noise;
#X text 39 254 SEQUENCER----------------------------------------------;
#X msg 236 316 read seq/load \, loop 0 \, go;
#X obj 713 894 s \$0-rpt;
#X obj 713 855 list prepend leds;
#X text 503 820 LEDs \; has own sequencer;
#X obj 232 802 s \$0-rpt;
#X obj 232 763 list prepend gen;
#X obj 225 608 r \$0-rpt;
#X obj 225 632 route sample;
#X obj 225 656 route done;
#X msg 225 681 done;
#X text 19 729 note generator;
#X obj 143 723 module.gen;
#X obj 639 821 module.leds;
#X obj 130 766 route midi;
#X obj 130 803 s \$0-midi;
#X obj 658 93 channel.in \$0 sample;
#X obj 690 314 channel.in \$0 noise;
#X obj 667 542 channel.in \$0 casio;
#X obj 669 772 channel.in \$0 leds;
#X obj 773 1064 channel.in \$0 hp;
#X obj 687 1223 channel.in \$0 gain;
#X obj 551 12 r \$0-in;
#X obj 551 36 route stop;
#X msg 551 60 0 0;
#X obj 143 580 channel.in \$0 gen;
#X obj 238 406 channel.in \$0 sequence;
#X connect 4 0 14 0;
#X connect 8 0 5 0;
#X connect 8 2 6 0;
#X connect 11 0 17 0;
#X connect 11 1 28 0;
#X connect 12 0 11 0;
#X connect 13 0 8 0;
#X connect 14 0 2 0;
#X connect 14 1 43 0;
#X connect 17 0 39 0;
#X connect 17 1 47 0;
#X connect 19 0 33 0;
#X connect 20 0 19 0;
#X connect 21 0 22 0;
#X connect 22 0 3 0;
#X connect 25 0 21 0;
#X connect 27 0 26 0;
#X connect 28 0 24 0;
#X connect 29 1 34 0;
#X connect 31 0 30 0;
#X connect 32 0 29 0;
#X connect 33 0 21 1;
#X connect 35 0 29 0;
#X connect 36 0 29 0;
#X connect 37 0 36 0;
#X connect 38 0 29 0;
#X connect 39 0 61 0;
#X connect 39 1 27 0;
#X connect 40 0 49 0;
#X connect 43 0 42 0;
#X connect 45 0 44 0;
#X connect 47 0 46 0;
#X connect 49 0 29 0;
#X connect 51 0 50 0;
#X connect 54 0 53 0;
#X connect 55 0 56 0;
#X connect 56 0 57 0;
#X connect 57 0 58 0;
#X connect 58 0 60 0;
#X connect 60 1 54 0;
#X connect 60 1 62 0;
#X connect 61 0 4 0;
#X connect 61 1 51 0;
#X connect 62 0 63 0;
#X connect 64 0 11 0;
#X connect 65 0 17 1;
#X connect 66 0 39 0;
#X connect 67 0 61 0;
#X connect 68 0 4 1;
#X connect 68 0 45 0;
#X connect 69 0 14 1;
#X connect 70 0 71 0;
#X connect 71 0 72 0;
#X connect 72 0 11 0;
#X connect 73 0 60 0;
#X connect 74 0 29 0;
#X connect 74 0 31 0;
