#N canvas 15 51 1150 848 12;
#X declare -path ./bop;
#X obj 97 40 declare -path ./bop;
#X text 1231 1253 hi there! you are great! :);
#X obj 612 1043 outlet~;
#X obj 947 1043 outlet;
#X obj 743 707 r \$0-in;
#X obj 743 734 route hp;
#X obj 611 771 hip~ 0, f 16;
#X obj 38 173 s \$0-midi;
#X obj 217 170 s \$0-in;
#X text 491 772 hi pass filter;
#X obj 38 77 route list bang, f 26;
#X text 225 143 < messages;
#X text 48 113 < Lists starting with numbers, f 12;
#X obj 611 161 bop.module/streamsample~;
#X obj 611 45 r \$0-midi;
#X obj 623 101 r \$0-in;
#X obj 38 40 inlet;
#X obj 657 893 route gain;
#X obj 657 860 r \$0-in;
#N canvas 18 168 450 300 gain 0;
#X obj 126 51 inlet~;
#X obj 133 268 outlet~;
#X msg 152 157 \$1 10;
#X obj 133 216 *~;
#X obj 151 92 loadbang;
#X msg 151 116 1;
#X obj 151 184 line~;
#X obj 232 76 inlet;
#X obj 233 267 outlet;
#X connect 0 0 3 0;
#X connect 2 0 6 0;
#X connect 3 0 1 0;
#X connect 4 0 5 0;
#X connect 5 0 2 0;
#X connect 6 0 3 1;
#X connect 7 0 2 0;
#X connect 7 0 8 0;
#X restore 611 922 pd gain;
#X text 555 924 gain;
#X obj 623 131 route sample;
#X text 532 161 sample;
#X obj 664 298 r \$0-in;
#X obj 664 328 route noise;
#N canvas 133 313 666 488 noise 0;
#X obj 126 51 inlet~;
#X obj 133 268 outlet~;
#X msg 212 157 \$1 10;
#X obj 193 216 *~;
#X obj 211 42 loadbang;
#X obj 211 184 line~;
#X obj 148 107 noise~;
#X obj 278 82 inlet;
#X msg 211 66 0;
#X obj 278 266 outlet;
#X obj 148 131 *~ 0.1;
#X connect 0 0 1 0;
#X connect 2 0 5 0;
#X connect 3 0 1 0;
#X connect 4 0 8 0;
#X connect 5 0 3 1;
#X connect 6 0 10 0;
#X connect 7 0 2 0;
#X connect 7 0 9 0;
#X connect 8 0 2 0;
#X connect 10 0 3 0;
#X restore 611 366 pd noise;
#X text 534 366 noise;
#X obj 1028 895 route report;
#X obj 1028 863 r \$0-in;
#X obj 947 959 list prepend;
#X obj 947 983 route 1;
#X text 1052 958 gate reporting;
#X obj 636 499 r \$0-in;
#X obj 636 532 route casio;
#X obj 776 231 s \$0-rpt;
#X obj 947 866 r \$0-rpt;
#X obj 727 636 s \$0-rpt;
#X obj 727 601 list prepend casio;
#X obj 776 199 list prepend sample;
#X obj 238 376 r \$0-in;
#X obj 238 406 route sequence;
#X obj 40 440 bop.module/sequence;
#A saved === DEFAULT SETTINGS \; --- custom sample path \; sample path ../../samples \; gain 1 \; === CASIO BOOT TONE \; casio stop \; casio gain 0.1 \; casio release 1 \; casio sustain 0 \; casio decay 1 \; casio attack 0.01 \; casio wave-2 4 \; casio wave-1 3 \; --- sweep 0 to 0.8 in 2000ms \; casio filter 0 0.8 2000 \; === PLAY NOTES \; casio 60 127 \; casio 67 127 \; casio 74 127 \; - 2000 \; casio stop \;;
#X obj 238 481 s \$0-rpt;
#X obj 238 449 list prepend sequence;
#X msg 180 316 open;
#X obj 1028 928 tgl 19 0 empty empty empty 0 -10 0 12 #fcfcfc #000000 #000000 0 1;
#X obj 170 481 s \$0-in;
#X msg 76 288 stop;
#X msg 116 316 loop \$1;
#X obj 116 288 tgl 19 0 empty empty empty 0 -10 0 12 #fcfcfc #000000 #000000 0 1;
#X msg 40 288 go;
#X obj 611 572 bop.module/casio~;
#X obj 236 292 loadbang;
#X text 543 574 casio;
#X obj 657 986 s \$0-rpt;
#X obj 657 951 list prepend gain;
#X obj 743 801 s \$0-rpt;
#X obj 743 766 list prepend hp;
#X obj 664 426 s \$0-rpt;
#X obj 664 401 list prepend noise;
#X text 39 254 SEQUENCER----------------------------------------------;
#X msg 236 316 read seq/load \, loop 0 \, go;
#X text 36 572 ARDUINO --------------------------;
#X obj 39 605 r \$0-in;
#X obj 39 635 route ard;
#N canvas 198 253 858 458 ARDUINO_MODULE 0;
#X obj 77 327 route d;
#X msg 77 143 needle \$1;
#X floatatom 77 352 5 0 0 1 distance - - 0;
#X msg 747 143 ledhue \$1;
#X msg 371 146 leds \$1 \$1 \$1 \$1 \$1 \$1 \$1 \$1 \$1 \$1;
#X msg 660 150 ledsat \$1;
#X text 459 72 LEDs;
#X text 74 268 sensor;
#X text 158 140 motor;
#X obj 77 170 s ard-out;
#X obj 371 173 s ard-out;
#X obj 660 173 s ard-out;
#X obj 747 173 s ard-out;
#X obj 77 299 r ard-in;
#X obj 78 10 inlet;
#X obj 77 95 route needle;
#X obj 371 114 route leds ledsat ledhue, f 64;
#X text 175 28 todo: give arduino it's own sequencer;
#X obj 28 378 outlet;
#X connect 0 0 2 0;
#X connect 1 0 9 0;
#X connect 3 0 12 0;
#X connect 4 0 10 0;
#X connect 5 0 11 0;
#X connect 13 0 0 0;
#X connect 13 0 18 0;
#X connect 14 0 15 0;
#X connect 14 0 18 0;
#X connect 15 0 1 0;
#X connect 15 1 16 0;
#X connect 16 0 4 0;
#X connect 16 1 5 0;
#X connect 16 2 3 0;
#X restore 39 664 pd ARDUINO_MODULE;
#X obj 39 703 s \$0-rpt;
#X connect 4 0 5 0;
#X connect 5 0 6 1;
#X connect 5 0 57 0;
#X connect 6 0 19 0;
#X connect 10 0 7 0;
#X connect 10 2 8 0;
#X connect 13 0 25 0;
#X connect 13 1 38 0;
#X connect 14 0 13 0;
#X connect 15 0 21 0;
#X connect 16 0 10 0;
#X connect 17 0 19 1;
#X connect 18 0 17 0;
#X connect 19 0 2 0;
#X connect 19 1 55 0;
#X connect 21 0 13 0;
#X connect 23 0 24 0;
#X connect 24 0 25 1;
#X connect 25 0 51 0;
#X connect 25 1 59 0;
#X connect 27 0 45 0;
#X connect 28 0 27 0;
#X connect 29 0 30 0;
#X connect 30 0 3 0;
#X connect 32 0 33 0;
#X connect 33 0 51 0;
#X connect 35 0 29 0;
#X connect 37 0 36 0;
#X connect 38 0 34 0;
#X connect 39 0 40 0;
#X connect 40 0 41 0;
#X connect 40 0 43 0;
#X connect 41 1 46 0;
#X connect 43 0 42 0;
#X connect 44 0 41 0;
#X connect 45 0 29 1;
#X connect 47 0 41 0;
#X connect 48 0 41 0;
#X connect 49 0 48 0;
#X connect 50 0 41 0;
#X connect 51 0 6 0;
#X connect 51 1 37 0;
#X connect 52 0 61 0;
#X connect 55 0 54 0;
#X connect 57 0 56 0;
#X connect 59 0 58 0;
#X connect 61 0 41 0;
#X connect 63 0 64 0;
#X connect 64 0 65 0;
#X connect 65 0 66 0;
