#N canvas 272 154 1059 762 12;
#X declare -path ./bop;
#X declare -path ./bop/bop.p;
#X obj 31 63 declare -path ./bop;
#X text 31 33 hi there! you are great! :);
#X obj 556 633 outlet~;
#X obj 721 703 outlet;
#X obj 629 337 r \$0-in;
#X obj 628 374 route hp;
#X obj 555 421 hip~ 0, f 16;
#X obj 81 273 s \$0-midi;
#X obj 257 280 s \$0-in;
#X text 435 422 hi pass filter;
#X obj 78 177 route list bang, f 26;
#X text 265 243 < messages;
#X text 91 213 < Lists starting with numbers, f 12;
#X obj 551 161 bop.module/streamsample~;
#X obj 738 292 s \$0-numsamples;
#X obj 810 263 s \$0-done;
#X obj 550 35 r \$0-midi;
#X obj 583 71 r \$0-in;
#X obj 738 220 route numsamples done;
#X obj 31 82 declare -path ./bop/bop.p;
#X obj 75 140 inlet;
#X obj 575 513 route gain;
#X obj 577 480 r \$0-in;
#N canvas 18 168 450 300 gain 1;
#X obj 126 51 inlet~;
#X obj 133 268 outlet~;
#X msg 152 157 \$1 10;
#X obj 133 216 *~;
#X obj 171 102 loadbang;
#X msg 171 126 1;
#X obj 151 184 line~;
#X obj 152 76 inlet;
#X connect 0 0 3 0;
#X connect 2 0 6 0;
#X connect 3 0 1 0;
#X connect 4 0 5 0;
#X connect 5 0 2 0;
#X connect 6 0 3 1;
#X connect 7 0 2 0;
#X restore 555 552 pd gain;
#X text 499 554 gain;
#X obj 583 111 route sample;
#X text 406 162 sample;
#X obj 569 218 r \$0-in;
#X obj 569 258 route noise;
#N canvas 165 377 666 488 noise 0;
#X obj 126 51 inlet~;
#X obj 133 268 outlet~;
#X msg 212 157 \$1 10;
#X obj 193 216 *~;
#X obj 231 102 loadbang;
#X msg 231 126 1;
#X obj 211 184 line~;
#X obj 148 107 noise~;
#X obj 148 131 *~ 0.01;
#X obj 218 62 inlet;
#X connect 0 0 1 0;
#X connect 2 0 6 0;
#X connect 3 0 1 0;
#X connect 4 0 5 0;
#X connect 5 0 2 0;
#X connect 6 0 3 1;
#X connect 7 0 8 0;
#X connect 8 0 3 0;
#X connect 9 0 2 0;
#X restore 541 306 pd noise;
#X text 464 306 noise;
#X connect 4 0 5 0;
#X connect 5 0 6 1;
#X connect 6 0 23 0;
#X connect 10 0 7 0;
#X connect 10 2 8 0;
#X connect 13 0 29 0;
#X connect 13 1 3 0;
#X connect 13 1 18 0;
#X connect 16 0 13 0;
#X connect 17 0 25 0;
#X connect 18 0 14 0;
#X connect 18 1 15 0;
#X connect 20 0 10 0;
#X connect 21 0 23 1;
#X connect 22 0 21 0;
#X connect 23 0 2 0;
#X connect 25 0 13 0;
#X connect 27 0 28 0;
#X connect 28 0 29 1;
#X connect 29 0 6 0;
