#N canvas 0 37 1470 891 12;
#X declare -path ./bop/bop.p;
#X msg 853 118 ledhue \$1;
#X msg 1117 118 ledsat \$1;
#X obj 675 944 s ard-out;
#X obj 1117 141 s ard-out;
#X obj 853 148 s ard-out;
#X obj 67 101 inlet~, f 25;
#X obj 239 321 outlet;
#X obj 239 149 bop.p.inout \$0;
#X obj 391 81 r \$0-stop;
#X obj 405 103 r \$0-params;
#X obj 374 59 r \$0-dump;
#X obj 63 60 declare -path ./bop/bop.p;
#X obj 675 853 list prepend leds;
#X obj 675 897 list trim;
#X obj 66 321 outlet~;
#X obj 353 532 bop.module/sequence;
#A saved array 1 1 0 0 0 0 0 0 0 0 \; - 50 \; array 0 1 1 0 0 0 0 0 0 0 \; - 50 \; array 0 0 1 1 0 0 0 0 0 0 \; - 50 \; array 0 0 0 1 1 0 0 0 0 0 \; - 50 \; array 0 0 0 0 1 1 0 0 0 0 \; - 50 \; array 0 0 0 0 0 1 1 0 0 0 \; - 50 \; array 0 0 0 0 0 0 1 1 0 0 \; - 50 \; array 0 0 0 0 0 0 0 1 1 0 \; - 50 \; array 0 0 0 0 0 0 0 0 1 1 \; - 50 \; array 0 0 0 0 0 0 0 0 0 1 \; - 50 \; array 0 0 0 0 0 0 0 0 1 1 \; - 50 \; array 0 0 0 0 0 0 0 1 1 0 \; - 50 \; array 0 0 0 0 0 0 1 1 0 0 \; - 50 \; array 0 0 0 0 0 1 1 0 0 0 \; - 50 \; array 0 0 0 0 1 1 0 0 0 0 \; - 50 \; array 0 0 0 1 1 0 0 0 0 0 \; - 50 \; array 0 0 1 1 0 0 0 0 0 0 \; - 50 \; array 0 1 1 0 0 0 0 0 0 0 \; - 50 \; array 1 1 0 0 0 0 0 0 0 0 \; - 50 \;;
#X obj 699 550 list;
#X msg 717 482 \$1 \$1 \$1 \$1 \$1 \$1 \$1 \$1 \$1 \$1;
#X obj 1085 87 t b f;
#X obj 1085 180 s \$0-updateleds;
#X obj 821 179 s \$0-updateleds;
#X obj 821 88 t b f;
#X obj 577 519 r \$0-updateleds;
#X obj 948 59 bop.p.param \$0 sat 1;
#X obj 670 59 bop.p.param \$0 hue 220;
#X obj 501 61 bop.p.param \$0 all 1;
#X obj 699 519 t b l;
#X obj 77 142 s~ in;
#X obj 986 571 r~ in;
#X msg 1196 554 1;
#X obj 369 465 r \$0-stop;
#X msg 369 498 stop;
#X obj 483 566 s \$0-cmd;
#X obj 259 110 r \$0-cmd;
#X obj 1196 521 bng 19 250 50 0 empty empty empty 0 -10 0 12 #fcfcfc #000000 #000000;
#X obj 986 677 / 100;
#X msg 986 714 1 \$1;
#X obj 986 751 route, f 16;
#X obj 1088 481 r \$0-stop;
#X msg 1072 514 0;
#X text 1255 423 react 0: no effect;
#X obj 584 97 s \$0-all;
#X obj 713 456 r \$0-all;
#X text 687 440 ARRAY, f 1;
#X obj 353 370 r \$0-params;
#X text 1257 543 todo:;
#X obj 986 794 change;
#X obj 610 756 metro 50;
#X obj 986 630 env~ 4096;
#X obj 986 602 pow~ 2;
#X text 535 181 bop.p.attr \$0 array;
#X obj 1081 342 bop.p.param \$0 react 0;
#X obj 702 371 r \$0-params;
#X obj 701 417 route array, f 15;
#X obj 353 418 route sequence, f 17;
#X obj 1072 405 sel 0, f 18;
#X obj 700 669 bop.p.listadd;
#X msg 1072 447 0;
#X obj 1214 863 *;
#X obj 1214 895 s \$0-arrayadd;
#X obj 756 589 r \$0-arrayadd;
#X obj 1082 547 s \$0-arrayadd;
#X text 1255 491 react 1: increase brightness across all leds (add_;
#X text 1256 567 react -1: reduce brightness of active leds (mult_;
#X obj 756 619 t b l;
#X obj 675 808 list;
#X obj 614 699 loadbang;
#X msg 614 723 1;
#X text 443 757 constantly update leds;
#X connect 0 0 4 0;
#X connect 1 0 3 0;
#X connect 5 0 14 0;
#X connect 5 0 27 0;
#X connect 5 1 7 0;
#X connect 7 0 6 0;
#X connect 12 0 13 0;
#X connect 13 0 2 0;
#X connect 15 1 32 0;
#X connect 16 0 56 0;
#X connect 17 0 26 0;
#X connect 18 0 19 0;
#X connect 18 1 1 0;
#X connect 21 0 20 0;
#X connect 21 1 0 0;
#X connect 22 0 16 0;
#X connect 23 1 18 0;
#X connect 24 1 21 0;
#X connect 25 1 41 0;
#X connect 26 0 16 0;
#X connect 26 1 16 1;
#X connect 28 0 49 0;
#X connect 29 0 37 1;
#X connect 30 0 31 0;
#X connect 31 0 15 0;
#X connect 33 0 7 0;
#X connect 34 0 29 0;
#X connect 35 0 36 0;
#X connect 36 0 37 0;
#X connect 37 0 46 0;
#X connect 38 0 39 0;
#X connect 39 0 61 0;
#X connect 39 0 37 1;
#X connect 42 0 17 0;
#X connect 44 0 54 0;
#X connect 46 0 58 0;
#X connect 48 0 35 0;
#X connect 49 0 48 0;
#X connect 51 1 55 0;
#X connect 51 1 58 1;
#X connect 52 0 53 0;
#X connect 53 0 26 0;
#X connect 54 0 15 0;
#X connect 55 0 57 0;
#X connect 55 1 34 0;
#X connect 56 0 65 1;
#X connect 57 0 39 0;
#X connect 58 0 59 0;
#X connect 60 0 64 0;
#X connect 64 0 56 0;
#X connect 64 1 56 1;
#X connect 65 0 12 0;
#X connect 66 0 67 0;
#X connect 67 0 47 0;
