#N canvas 309 37 1161 891 12;
#X declare -path ./bop/bop.p;
#X obj 67 101 inlet~, f 12;
#X obj 148 292 outlet;
#X obj 148 149 bop.p.inout \$0;
#X obj 384 103 r \$0-stop;
#X obj 398 125 r \$0-params;
#X obj 367 81 r \$0-dump;
#X obj 63 60 declare -path ./bop/bop.p;
#X obj 66 291 outlet~;
#X obj 394 386 route d;
#X floatatom 394 411 5 0 0 1 distance - - 0;
#X text 391 327 sensor;
#X obj 394 358 r ard-in;
#X obj 251 293 route noise gain;
#X connect 0 0 7 0;
#X connect 0 1 2 0;
#X connect 2 0 1 0;
#X connect 2 0 12 0;
#X connect 8 0 9 0;
#X connect 11 0 8 0;
