#N canvas 624 55 795 859 12;
#X declare -path ./bop/bop.p;
#X obj 67 101 inlet~, f 12;
#X obj 148 292 outlet;
#X obj 148 149 bop.p.inout \$0;
#X obj 384 103 r \$0-stop;
#X obj 398 125 r \$0-params;
#X obj 367 81 r \$0-dump;
#X obj 63 60 declare -path ./bop/bop.p;
#X obj 467 494 bng 19 250 50 0 empty empty empty 0 -10 0 12 #fcfcfc #000000 #000000;
#X obj 468 383 symbol;
#X obj 66 291 outlet~;
#X obj 248 623 bop.p.param \$0 density 1;
#X obj 321 242 route done, f 21;
#X obj 468 344 route mode;
#X obj 169 720 delay;
#X obj 321 326 s \$0-sample-done;
#X obj 467 529 t b b;
#X obj 499 567 bng 19 250 50 0 empty empty empty 0 -10 0 12 #fcfcfc #000000 #000000;
#X obj 501 880 s \$0-midi-out;
#X obj 159 251 r \$0-midi-out;
#X obj 501 747 random 127;
#X obj 351 446 r \$0-retrigger;
#X obj 169 743 s \$0-retrigger;
#X obj 169 683 random 10000;
#X obj 248 652 bop.p.scale 0 1 10000 100;
#X obj 37 37;
#X obj 606 689 bop.p.param \$0 space 0.5;
#X obj 499 595 t b b;
#X obj 604 714 * 100;
#X obj 579 663 random 100;
#X obj 579 745 > 50;
#X obj 579 769 * 127;
#X obj 501 811 pack f f;
#X msg 501 848 midi \$1 \$2;
#X obj 85 663 r \$0-stop;
#X msg 85 687 stop;
#X obj 467 412 sel chat;
#X obj 634 784 r \$0-stop;
#X msg 634 808 0 0;
#X connect 0 0 9 0;
#X connect 0 1 2 0;
#X connect 2 0 1 0;
#X connect 2 0 11 0;
#X connect 7 0 15 0;
#X connect 8 0 35 0;
#X connect 10 1 23 0;
#X connect 11 0 14 0;
#X connect 11 1 12 0;
#X connect 12 0 8 0;
#X connect 13 0 21 0;
#X connect 15 0 22 0;
#X connect 15 1 16 0;
#X connect 16 0 26 0;
#X connect 18 0 1 0;
#X connect 19 0 31 0;
#X connect 20 0 7 0;
#X connect 22 0 13 0;
#X connect 23 0 22 1;
#X connect 25 1 27 0;
#X connect 26 0 19 0;
#X connect 26 1 28 0;
#X connect 27 0 29 1;
#X connect 28 0 29 0;
#X connect 29 0 30 0;
#X connect 30 0 31 1;
#X connect 31 0 32 0;
#X connect 32 0 17 0;
#X connect 33 0 34 0;
#X connect 34 0 13 0;
#X connect 35 0 7 0;
#X connect 36 0 37 0;
#X connect 37 0 32 0;
